<?xml version="1.0" encoding="utf-8"?>
<!-- Generator: Adobe Illustrator 24.3.0, SVG Export Plug-In . SVG Version: 6.00 Build 0)  -->
<svg version="1.1" id="Calque_1" xmlns="http://www.w3.org/2000/svg" xmlns:xlink="http://www.w3.org/1999/xlink" x="0px" y="0px"
	 viewBox="0 0 66 82.5" style="enable-background:new 0 0 66 82.5;" xml:space="preserve">
<g>
	<path d="M54.7,27.6c-5.3-0.3-10.6-0.4-15.9-0.5c0-1-0.1-2-0.1-3l0.1-0.1c0.1-0.1,0.1-0.3,0-0.4c0,0-0.1,0-0.1,0
		c-0.2-5.1-0.5-10.2-0.9-15.2C37-1.1,32.2,0.3,30.2,3c-1.2,1.7-1.7,4-2.1,6.1c0,1.6-0.2,3.3-0.4,5c-0.8,6.4-0.4,6.6-0.1,13.2
		c-6.4,0.2-12.9,0.6-19.2,1.2c-9.7,0.9-8,5.7-5.3,7.6c3.1,2.2,7.2,2,11.1,2.5c6.6,0.8,6.9,0.3,13.5,0c-0.1,16.7-0.3,19,0.8,22.2
		c1.9,5.6,6.9,6.1,8.9,0.3c0.6-1.9,0.8-4,1-6.1c0.3-5.4,0.5-10.9,0.6-16.4c4.6,0,9.2,0,13.8-0.1c2.6,0,5.4,0,8-0.9
		C66.5,35.4,68.2,28.4,54.7,27.6z M63.9,32.4c-0.1,0-0.2,0-0.2,0l-0.1,0.1l-1.5-1.5l0.4-0.4c0,0,0-0.1,0.1-0.1
		C63.3,31.1,63.8,31.7,63.9,32.4z M64,32.9c0,0,0,0.1,0,0.1L64,32.9L64,32.9z M37.4,18.5l-0.2-0.2l0.2-0.2
		C37.4,18.2,37.4,18.3,37.4,18.5z M37.6,22.2l-0.5-0.5l0.4-0.4C37.6,21.6,37.6,21.9,37.6,22.2z M32.7,2.2l0.6,0.6l-0.9,0.9L31.6,3
		C31.9,2.7,32.3,2.4,32.7,2.2z M31,3.6c0.1-0.1,0.1-0.2,0.2-0.3L32,4.1c-0.1,0.1-1.3,1.1-1.4,1.2l-0.4-0.4C30.5,4.5,30.8,4,31,3.6z
		 M29.7,6.6c0.1-0.4,0.3-0.8,0.4-1.2l0.3,0.3c0,0,0,0.1,0,0.1c0,0,0.1,0.1,0.1,0.1l0.6,0.6c-0.1-0.1-0.2-0.1-0.3,0l-0.6,0.6
		L29.7,6.6z M3.3,35l1-1l0.9,0.9l-0.8,0.8c0,0,0,0,0,0c-0.3-0.1-0.5-0.3-0.8-0.5C3.5,35.1,3.4,35,3.3,35z M8.5,36L8,35.4l0.7-0.7
		l0.9,0.9l-1.1,1.1c-0.1,0.1-0.1,0.2,0,0.3c-0.6-0.1-1.1-0.2-1.7-0.4l0.8-0.8l0.6,0.6c0.1,0.1,0.3,0.1,0.4,0
		C8.6,36.2,8.6,36.1,8.5,36z M6.3,36.4c-0.5-0.2-1-0.3-1.4-0.5l1.5-1.5l1,1L6.3,36.4z M8.9,37L10,36l0.8,0.8l-0.3,0.3
		c-0.4,0-0.9,0-1.3,0C9.1,37.1,9,37.1,8.9,37z M12.9,37.3c-0.6-0.1-1.2-0.1-1.8-0.2l0.1-0.1c0.1,0,0.1,0,0.1-0.1l0.6-0.6L12.9,37.3
		L12.9,37.3z M19,37.9c-0.5,0-1,0-1.4-0.1l0.9-0.9l0.7,0.7L19,37.9z M19.8,37.9C19.7,37.9,19.7,37.9,19.8,37.9l1.1-1.2
		c0,0,0,0.1,0.1,0.1l1,1C21.2,37.8,20.5,37.9,19.8,37.9z M24.3,37.6c-0.5,0-1,0.1-1.5,0.1l0.9-0.9l0.8,0.8
		C24.4,37.6,24.4,37.6,24.3,37.6z M30.1,62l1.4-1.4l1,1l-1.5,1.5C30.7,62.8,30.4,62.4,30.1,62z M32.6,63.7c-0.1,0.1-0.1,0.2,0,0.3
		c-0.4-0.1-0.8-0.3-1.1-0.5l1.4-1.4l0.7,0.7L32.6,63.7z M33.2,61.6l1.1-1.1l0.7,0.7L34,62.4L33.2,61.6z M32.9,61.3l-1-1l1.1-1.1l1,1
		L32.9,61.3z M33.3,64c-0.1,0-0.2,0-0.3,0l0.9-0.9l0.4,0.4C34,63.7,33.7,63.9,33.3,64z M34.8,63.2l-0.4-0.4l1.1-1.1l0,0
		c0.1,0.1,0.2,0.1,0.3,0C35.5,62.3,35.2,62.8,34.8,63.2z M35.8,61.3L35.8,61.3l0.3-0.4c-0.1,0.2-0.2,0.4-0.3,0.6
		C35.9,61.4,35.9,61.3,35.8,61.3z M36.7,55.2c0,0,0.1-0.1,0.1-0.2c0,0,0.1,0,0.1,0c0.1-0.1,0.1-0.3,0-0.4l-1-1l0.8-0.8l0.2,0.2
		c0.1,0.1,0.3,0.1,0.4,0c0,0,0,0,0,0c0,0.5,0,1.1-0.1,1.6c0,0.7-0.1,1.4-0.2,2.1l-0.8,0.8l-0.9-0.9L36.7,55.2z M37.4,38.8l0.4-0.4
		c0,0.3,0,0.6,0,0.9L37.4,38.8z M37.7,44.3l-0.6-0.6l0.6-0.6C37.7,43.4,37.7,43.9,37.7,44.3z M38.3,37.3c-0.3,0-0.5,0.2-0.5,0.5
		c0,0,0,0,0,0c-0.1,0-0.2,0-0.3,0l-0.9,0.9c-0.1,0.1-0.1,0.3,0,0.4s0.3,0.1,0.4,0l0,0l0.4,0.4c0,0-0.1,0-0.1,0.1l-1.1,1.1
		c-0.1,0.1-0.1,0.2,0,0.3c-0.1,0-0.2,0-0.3,0c-0.1,0.1-0.1,0.3,0,0.4l1.2,1.2c0.1,0.1,0.3,0.1,0.4,0s0.1-0.3,0-0.4l-1.1-1.1
		c0.1,0,0.1,0,0.2-0.1l1.1-1.1c0,0,0-0.1,0.1-0.1l0.1,0.1c0,0.8,0,1.7-0.1,2.5c-0.1,0-0.1,0-0.2,0.1l-0.8,0.8
		c-0.1-0.1-0.2-0.1-0.3,0c-0.1,0.1-0.1,0.2,0,0.3c-0.1,0.1-0.1,0.2,0,0.3c0.1,0.1,0.2,0.1,0.3,0l0.7,0.7c0.1,0.1,0.2,0.1,0.3,0
		c0,0.3,0,0.6,0,0.9l-1,1l-0.5-0.5c-0.1-0.1-0.3-0.1-0.4,0s-0.1,0.3,0,0.4l0.5,0.5c0,0.1,0,0.2,0.1,0.2c0.1,0.1,0.1,0.1,0.2,0.1
		l0.4,0.4c0.1,0.1,0.3,0.1,0.4,0s0.1-0.3,0-0.4L37,46.9l0.6-0.6c0,1-0.1,2-0.2,3L37,48.9l0.4-0.4c0.1-0.1,0.1-0.3,0-0.4
		s-0.3-0.1-0.4,0l-0.4,0.4l-0.2-0.2c-0.1-0.1-0.3-0.1-0.4,0s-0.1,0.3,0,0.4l0.2,0.2l-0.8,0.8c-0.1,0.1-0.1,0.3,0,0.4s0.3,0.1,0.4,0
		l0.8-0.8l0.8,0.8c0,0,0.1,0,0.1,0c0,0.9-0.1,1.8-0.1,2.7c0,0,0,0,0,0L35.6,51c-0.1-0.1-0.3-0.1-0.4,0s-0.1,0.3,0,0.4l1.2,1.2
		l-0.8,0.8l-0.6-0.6c-0.1-0.1-0.3-0.1-0.4,0s-0.1,0.3,0,0.4l0.6,0.6L34.9,54c-0.1,0.1-0.1,0.3,0,0.4s0.3,0.1,0.4,0l0.4-0.4l0.8,0.8
		c0,0,0,0,0,0l-1.5,1.5l-0.9-0.9c-0.1-0.1-0.3-0.1-0.4,0s-0.1,0.3,0,0.4l0.9,0.9c-0.1,0.1-0.1,0.2,0,0.3c0.1,0.1,0.2,0.1,0.3,0l1,1
		l-0.5,0.5c-0.1,0.1-0.1,0.3,0,0.4s0.3,0.1,0.4,0l0.5-0.5l0.2,0.2c0.1,0.1,0.3,0.1,0.4,0s0.1-0.3,0-0.4L36.6,58l0.4-0.4
		c-0.1,1-0.3,1.9-0.6,2.8c0,0,0,0,0,0c-0.1-0.1-0.3-0.1-0.4,0l-0.5,0.5l-0.7-0.7l0.6-0.6c0.1-0.1,0.1-0.3,0-0.4s-0.3-0.1-0.4,0
		l-0.6,0.6l-1-1l0.7-0.7c0.1-0.1,0.1-0.3,0-0.4s-0.3-0.1-0.4,0L33,58.4l-0.5-0.5c-0.1-0.1-0.3-0.1-0.4,0s-0.1,0.3,0,0.4l0.5,0.5
		l-1.1,1.1L30.6,59c-0.1-0.1-0.3-0.1-0.4,0c-0.1,0.1-0.1,0.3,0,0.4l0.9,0.9l-1.3,1.3c-0.2-0.4-0.4-0.8-0.5-1.2
		c-1-3-0.8-5.1-0.7-22.4c0-0.3-0.2-0.5-0.5-0.5c0,0,0,0,0,0c-0.1,0-0.2,0-0.3,0l0.5-0.5l0.2,0.2c0.1,0.1,0.3,0.1,0.4,0
		s0.1-0.3,0-0.4l-0.2-0.2l0.1-0.1c0.1-0.1,0.1-0.3,0-0.4s-0.3-0.1-0.4,0l-0.1,0.1L28,36c-0.1-0.1-0.3-0.1-0.4,0s-0.1,0.3,0,0.4
		l0.2,0.2l-0.9,0.9c-0.4,0-0.7,0-1.1,0.1l0.5-0.5l0.3,0.3c0.1,0.1,0.3,0.1,0.4,0s0.1-0.3,0-0.4l-0.3-0.3l0.3-0.3
		c0.1-0.1,0.1-0.3,0-0.4s-0.3-0.1-0.4,0l-0.3,0.3l-0.1-0.1c-0.1-0.1-0.3-0.1-0.4,0s-0.1,0.3,0,0.4l0.1,0.1l-0.9,0.9
		c-0.1,0-0.1,0-0.2,0c0-0.1,0-0.1-0.1-0.2L24,36.5c0-0.1,0-0.1-0.1-0.2c-0.1-0.1-0.1-0.1-0.2-0.1l0,0c-0.1-0.1-0.3-0.1-0.4,0
		c-0.1,0.1-0.1,0.2,0,0.3l-1,1l-1-1c0,0-0.1-0.1-0.2-0.1c0-0.1,0-0.2,0-0.3c-0.1-0.1-0.3-0.1-0.4,0l-1.2,1.2l-0.7-0.7l0.1-0.1
		c0.1-0.1,0.1-0.3,0-0.4s-0.3-0.1-0.4,0l-0.1,0.1l-0.6-0.6c-0.1-0.1-0.3-0.1-0.4,0s-0.1,0.3,0,0.4l0.6,0.6l-1,1
		c-0.1,0.1-0.1,0.2,0,0.3c-0.6,0-1.1-0.1-1.7-0.2l0.5-0.5l0.5,0.5c0.1,0.1,0.3,0.1,0.4,0s0.1-0.3,0-0.4l-0.5-0.5l1-1
		c0.1-0.1,0.1-0.3,0-0.4s-0.3-0.1-0.4,0l-1,1l-0.5-0.5c-0.1-0.1-0.3-0.1-0.4,0c-0.1,0.1-0.1,0.3,0,0.4l0.5,0.5l-0.8,0.8
		c-0.2,0-0.4,0-0.5-0.1c-0.1,0-0.3,0-0.4,0c0,0,0,0,0-0.1l-0.1-0.1l1.4-1.4c0.1-0.1,0.1-0.3,0-0.4s-0.3-0.1-0.4,0l-1.4,1.4l-1-1
		l0.5-0.5c0.1-0.1,0.1-0.3,0-0.4s-0.3-0.1-0.4,0L12,35.6l-0.1-0.1c-0.1-0.1-0.3-0.1-0.4,0c-0.1,0.1-0.1,0.3,0,0.4l0.1,0.1l-0.5,0.5
		l-0.8-0.8l1.4-1.4c0.1-0.1,0.1-0.3,0-0.4s-0.3-0.1-0.4,0L10,35.3L9,34.3l0.8-0.8c0.1-0.1,0.1-0.3,0-0.4s-0.3-0.1-0.4,0L8.7,34
		c-0.1,0-0.2,0-0.3,0c-0.1,0.1-0.1,0.2,0,0.3L7.6,35l-1-1L6.7,34c0.1-0.1,0.1-0.3,0-0.4s-0.3-0.1-0.4,0l-0.1,0.1l-0.4-0.4
		c-0.1-0.1-0.3-0.1-0.4,0s-0.1,0.3,0,0.4L6,34.1l-0.4,0.4l-0.9-0.9l1.5-1.5c0.1-0.1,0.1-0.3,0-0.4c-0.1-0.1-0.3-0.1-0.4,0l-1.5,1.5
		l-1.2-1.2C3,32,2.9,32,2.8,32.1c-0.1,0.1-0.1,0.3,0,0.4L4,33.6l-1,1c-1.8-1.9-1.7-4.5,5.5-5.2c6.5-0.6,13.1-1,19.7-1.2
		c0.1,0,0.3-0.1,0.4-0.2c0.1-0.1,0.1-0.2,0.1-0.4c-0.2-6.5-0.8-6.9,0-13.5c0.2-1.7,0.4-3.4,0.4-5c0.1-0.6,0.3-1.3,0.4-2l0.3,0.3
		c0,0.1,0,0.2,0.1,0.2c0,0,0.1,0.1,0.2,0.1c0,0,0,0,0,0l0.4,0.4c0.1,0.1,0.3,0.1,0.4,0s0.1-0.3,0-0.4l-0.4-0.4l0.6-0.6
		c0.1-0.1,0.1-0.2,0-0.3l0.3,0.3c0.1,0.1,0.3,0.1,0.4,0s0.1-0.3,0-0.4L31,5.7c0.1-0.1,1.3-1.1,1.4-1.2L33,5.1c0.1,0.1,0.3,0.1,0.4,0
		s0.1-0.3,0-0.4l-0.6-0.6l0.9-0.9l1,1c0.1,0.1,0.3,0.1,0.4,0s0.1-0.3,0-0.4l-1.8-1.8c2.3-0.5,3.1,2.9,3.4,5.2l-0.2,0.2l-0.6-0.6
		l0.5-0.5c0.1-0.1,0.1-0.3,0-0.4S36,5.9,35.9,6l-0.5,0.5l-0.9-0.9c-0.1-0.1-0.3-0.1-0.4,0s-0.1,0.3,0,0.4l0.9,0.9l0,0
		C35,7,35,7.1,35.1,7.2c0.1,0.1,0.3,0.1,0.4,0l0,0l0.6,0.6l-0.2,0.2c-0.1,0.1-0.1,0.3,0,0.4c0.1,0.1,0.3,0.1,0.4,0l0.3-0.3
		c0.1,0,0.1,0,0.2-0.1c0,0,0.1-0.1,0.1-0.1c0,0.2,0,0.4,0.1,0.6c0,0.6,0.1,1.1,0.1,1.7l0,0l-1.3-1.3c-0.1-0.1-0.3-0.1-0.4,0
		s-0.1,0.3,0,0.4l1.3,1.3l-0.7,0.7c-0.1,0.1-0.1,0.3,0,0.4c0.1,0.1,0.3,0.1,0.4,0l0.8-0.8c0.1,0.8,0.1,1.7,0.2,2.5L36.7,13v-1.1
		c0-0.1-0.1-0.2-0.2-0.2s-0.2,0.1-0.2,0.2v0.6l-0.4-0.4c-0.1-0.1-0.3-0.1-0.4,0s-0.1,0.3,0,0.4l0.8,0.8v1c0,0.1,0.1,0.2,0.2,0.2
		s0.2-0.1,0.2-0.2v-0.5L37,14c0,0,0.1,0,0.1,0c0,0.4,0.1,0.9,0.1,1.3l-0.7-0.7c-0.1-0.1-0.3-0.1-0.4,0c-0.1,0.1-0.1,0.3,0,0.4
		l1.1,1.1c0,0,0,0,0,0c0,0.5,0.1,0.9,0.1,1.4l-0.5,0.5L36,17.1c-0.1-0.1-0.3-0.1-0.4,0s-0.1,0.3,0,0.4l0.8,0.8l-0.6,0.6
		c-0.1,0.1-0.1,0.3,0,0.4c0.1,0.1,0.3,0.1,0.4,0l0.6-0.6l0.6,0.6c0,0.4,0,0.7,0.1,1.1l-0.7-0.7c-0.1-0.1-0.3-0.1-0.4,0
		s-0.1,0.3,0,0.4l0.8,0.8l-0.6,0.6c0,0-0.1,0-0.1,0.1c0,0,0,0.1-0.1,0.1l-0.6,0.6c-0.1,0.1-0.1,0.3,0,0.4s0.3,0.1,0.4,0l0.5-0.5
		l0.9,0.9c0,0.5,0,1,0,1.5l-0.1,0.1L37.2,24c-0.1-0.1-0.3-0.1-0.4,0s-0.1,0.3,0,0.4l0.4,0.4l-0.6,0.6c-0.1,0.1-0.1,0.3,0,0.4
		s0.3,0.1,0.4,0l0.6-0.6l0.1,0.1c0,0.8,0.1,1.6,0.1,2.4c0,0.3,0.2,0.5,0.5,0.5c5.4,0,10.9,0.2,16.3,0.5c2.8,0.2,5.6,0.4,7.6,1.7
		c0,0,0,0-0.1,0l-0.6,0.6h0v0l-1,1c-0.1,0.1-0.1,0.3,0,0.4c0.1,0.1,0.3,0.1,0.4,0l0.9-0.9l1.5,1.5L62.1,34l-0.6-0.6l0.6-0.6
		c0.1-0.1,0.1-0.3,0-0.4s-0.3-0.1-0.4,0l-0.6,0.6l-1-1c-0.1-0.1-0.3-0.1-0.4,0s-0.1,0.3,0,0.4l1,1l-1.5,1.5l-1.4-1.4l1.2-1.2
		c0.1-0.1,0.1-0.3,0-0.4s-0.3-0.1-0.4,0l-1.2,1.2c-0.1,0-0.1,0-0.2,0.1c0,0-0.1,0.1-0.1,0.2l-1.4,1.3l-1.4-1.4l0.9-0.9
		c0.1-0.1,0.1-0.3,0-0.4s-0.3-0.1-0.4,0l-2.6,2.6l-0.7-0.7c-0.1-0.1-0.3-0.1-0.4,0c-0.1,0.1-0.1,0.3,0,0.4l0.7,0.7l-1.1,1.1
		l-1.5-1.5l0.7-0.7c0.1-0.1,0.1-0.3,0-0.4s-0.3-0.1-0.4,0l-0.7,0.7c-0.1-0.1-0.2-0.1-0.3,0c-0.1,0.1-0.1,0.2,0,0.3L48,35.7l-0.6-0.6
		c-0.1-0.1-0.3-0.1-0.4,0s-0.1,0.3,0,0.4l0.6,0.6l-1.3,1.3c0,0,0,0-0.1,0c0-0.1,0-0.2,0-0.3l-1.3-1.3l1.6-1.6c0.1-0.1,0.1-0.3,0-0.4
		s-0.3-0.1-0.4,0l-1.6,1.6l-0.2-0.2c-0.1-0.1-0.3-0.1-0.4,0s-0.1,0.3,0,0.4l0.2,0.2L42.9,37l-1.1-1.1c-0.1-0.1-0.3-0.1-0.4,0
		c-0.1,0.1-0.1,0.3,0,0.4l1.1,1.1c-0.6,0-1.2,0-1.8,0l-0.5-0.5l2-2c0.1-0.1,0.1-0.3,0-0.4s-0.3-0.1-0.4,0l-2,2l-0.4-0.4
		c-0.1-0.1-0.3-0.1-0.4,0s-0.1,0.3,0,0.4l0.4,0.4L39,37.3C38.8,37.3,38.6,37.3,38.3,37.3z M54.9,37.2l-0.3-0.3l1.4-1.4l1.5,1.5
		C56.6,37.2,55.7,37.2,54.9,37.2z M54.2,37.3C54.2,37.3,54.2,37.3,54.2,37.3L54.2,37.3L54.2,37.3z M54.2,33.8l1.4,1.4l-1.4,1.4
		l-1.4-1.4L54.2,33.8z M57.7,36.6l-1.4-1.4l1.3-1.3l1.4,1.4L57.7,36.6z M59.3,35.6l0.8,0.8c-0.7,0.2-1.4,0.4-2.2,0.5c0,0,0,0,0,0
		L59.3,35.6z M50,37.3c-0.2,0-0.4,0-0.5,0c0,0,0-0.1,0-0.1L48.3,36l0.9-0.9l1.5,1.5L50,37.3z M51.1,37l0.3,0.3c-0.2,0-0.4,0-0.6,0
		L51.1,37z M48.9,37.3c-0.6,0-1.2,0-1.9,0l0.9-0.9L48.9,37.3z M43.3,37.3l1.3-1.3l1.2,1.2C45,37.3,44.1,37.3,43.3,37.3z M40,37.3
		c-0.1,0-0.2,0-0.3,0l0.1-0.1L40,37.3z M52.6,37.3c-0.2,0-0.4,0-0.6,0l-0.6-0.6l1.1-1.1l1.4,1.4l-0.4,0.4
		C53.2,37.3,52.9,37.3,52.6,37.3z M60.6,36.3C60.6,36.3,60.6,36.2,60.6,36.3l-1-1l1.5-1.5l0.6,0.6c0,0.1,0,0.1,0.1,0.2
		c0,0,0.1,0.1,0.2,0.1l0.1,0.1c0.1,0.1,0.3,0.1,0.4,0s0.1-0.3,0-0.4l-0.1-0.1l1.1-1.1l0.3,0.3c0,0,0,0,0,0
		C63.4,34.7,62.1,35.7,60.6,36.3z"/>
	<path d="M30.5,14.1l0.1-2.5c0-0.1-0.1-0.3-0.2-0.3c-0.2,0-0.3,0.1-0.3,0.2L30,13.9l-0.5-0.2c-0.1-0.1-0.3,0-0.3,0.1
		c-0.1,0.1,0,0.3,0.1,0.3l0.7,0.3l-0.1,3.1l-0.5-0.1c-0.1,0-0.3,0.1-0.3,0.2c0,0.1,0.1,0.3,0.2,0.3l0.6,0.1l-0.1,2.4l0,0
		c-0.1,0-0.3,0.1-0.3,0.2c0,0.1,0.1,0.3,0.2,0.3l0,0l-0.1,2.2c-0.2,0-0.3,0.1-0.3,0.2c0,0.1,0.1,0.3,0.3,0.3l-0.1,1.6
		c0,0.1,0.1,0.3,0.2,0.3c0,0,0,0,0,0c0.1,0,0.2-0.1,0.2-0.2l0.1-1.6l0.3,0c0,0,0,0,0,0c0.1,0,0.2-0.1,0.2-0.2c0-0.1-0.1-0.3-0.2-0.3
		l-0.3,0l0.1-2.2l0.7,0c0,0,0,0,0,0c0.1,0,0.2-0.1,0.2-0.2c0-0.1-0.1-0.3-0.2-0.3l-0.7,0l0.1-2.3l0.1,0c0.1,0,0.3-0.1,0.3-0.2
		c0-0.1-0.1-0.3-0.2-0.3l-0.2,0l0.1-3l0.4,0.2c0.1,0.1,0.3,0,0.3-0.1c0.1-0.1,0-0.3-0.1-0.3L30.5,14.1z"/>
</g>
</svg>
