<?xml version="1.0" encoding="utf-8"?>
<!-- Generator: Adobe Illustrator 24.3.0, SVG Export Plug-In . SVG Version: 6.00 Build 0)  -->
<svg version="1.1" id="Calque_1" xmlns="http://www.w3.org/2000/svg" xmlns:xlink="http://www.w3.org/1999/xlink" x="0px" y="0px"
	 viewBox="0 0 66 82.5" style="enable-background:new 0 0 66 82.5;" xml:space="preserve">
<g>
	<g>
		<g>
			<path d="M61.9,40.6c-7-4.5-47.4-6.9-56.2-2.2c-6.6,3.5-6.2,11.3,0.7,14.2c3.7,1.6,5,1.3,36.7,1.9c0,0,0,0,0,0
				c0.3,0,0.5-0.2,0.5-0.5c0,0,0,0,0,0c3.9-0.2,14.7-1.2,18.1-3.2C66.1,48.3,66,43.3,61.9,40.6z M4.5,50.2c0.1,0,0.1,0,0.2-0.1
				l0.7-0.7L6,50.1c0.1,0.1,0.3,0.1,0.4,0c0.1-0.1,0.1-0.3,0-0.4l-0.6-0.6l0.8-0.8l1.2,1.2l-1.5,1.5c-0.1,0.1-0.1,0.3,0,0.4
				s0.3,0.1,0.4,0l1.5-1.5l2,2c0,0,0,0,0.1,0c-0.1,0.1-0.1,0.2,0,0.3c0.1,0.1,0.3,0.1,0.4,0l1.8-1.8l1.5,1.5l-0.1,0.1
				c-0.1,0.1-0.1,0.3,0,0.4s0.3,0.1,0.4,0l0.1-0.1L15,53c-2.7-0.1-5.6-0.2-8.1-1.3C6,51.4,5.2,50.9,4.5,50.2z M10,48L12,50l-1.5,1.5
				c0,0,0,0,0-0.1l-2-2L10,48z M12.8,50l2-2l1.5,1.5l-2,2L12.8,50z M37.2,53.2c-0.2,0-0.3,0.1-0.4,0.2L15.5,53c0-0.1,0-0.2,0-0.2
				l-0.9-0.9l2-2l1.9,1.9c0.1,0.1,0.3,0.1,0.4,0s0.1-0.3,0-0.4l-1.9-1.9l1.4-1.4l2.1,2.1L19,51.6c-0.1,0.1-0.1,0.3,0,0.4
				s0.3,0.1,0.4,0l1.4-1.4l1.2,1.2c0.1,0.1,0.3,0.1,0.4,0s0.1-0.3,0-0.4l-1.2-1.2l1.5-1.5l2.5,2.5l-0.9,0.9c-0.1,0.1-0.1,0.3,0,0.4
				s0.3,0.1,0.4,0l0.9-0.9l0.7,0.7c0.1,0.1,0.3,0.1,0.4,0s0.1-0.3,0-0.4l-0.7-0.7l1.9-1.9l2.6,2.6c0.1,0.1,0.3,0.1,0.4,0
				s0.1-0.3,0-0.4L28,49l4.3-4.3c0.1-0.1,0.1-0.3,0-0.4s-0.3-0.1-0.4,0l-4.3,4.3l-1.5-1.5c-0.1-0.1-0.3-0.1-0.4,0
				c-0.1,0.1-0.1,0.3,0,0.4l1.5,1.5l-1.9,1.9L23,48.3l4.2-4.2c0.1-0.1,0.1-0.3,0-0.4s-0.3-0.1-0.4,0L22.6,48l-1-1
				c-0.1-0.1-0.3-0.1-0.4,0c-0.1,0.1-0.1,0.3,0,0.4l1,1l-1.5,1.5l-2.1-2.1l3-3c0.1-0.1,0.1-0.3,0-0.4s-0.3-0.1-0.4,0l-3,3l-0.2-0.2
				c-0.1-0.1-0.3-0.1-0.4,0c-0.1,0.1-0.1,0.3,0,0.4l0.2,0.2l-1.4,1.4l-1.5-1.5l1-1c0.1-0.1,0.1-0.3,0-0.4s-0.3-0.1-0.4,0l-1,1
				L14.4,47c-0.1-0.1-0.3-0.1-0.4,0c-0.1,0.1-0.1,0.3,0,0.4l0.4,0.4l-2,2l-2.1-2.1l0.9-0.9c0.1-0.1,0.1-0.3,0-0.4s-0.3-0.1-0.4,0
				L10,47.3c-0.1,0-0.2,0-0.2,0c-0.1,0.1-0.1,0.2,0,0.2l-1.6,1.6l-1.2-1.2l1.3-1.3c0.1-0.1,0.1-0.3,0-0.4s-0.3-0.1-0.4,0l-1.3,1.3
				l-0.4-0.4C6,47,5.8,47,5.7,47.1c-0.1,0.1-0.1,0.3,0,0.4l0.4,0.4l-0.8,0.8l-2.5-2.5c-0.1-0.1-0.3-0.1-0.4,0s-0.1,0.3,0,0.4L5,49.1
				l-0.7,0.7c-0.1,0.1-0.1,0.1-0.1,0.2c-4-3.7-2.2-8.5,2-10.7c8.4-4.4,48.5-2.1,55.1,2.2c1.9,1.3,3.3,3.6,2.3,5.9c0,0,0,0,0,0
				l-0.1-0.1l0,0c0.1-0.1,0.1-0.3,0-0.4s-0.3-0.1-0.4,0l0,0l-0.8-0.8c-0.1-0.1-0.3-0.1-0.4,0s-0.1,0.3,0,0.4l0.8,0.8l-0.9,0.9
				c-0.1,0.1-0.1,0.3,0,0.4s0.3,0.1,0.4,0l0.9-0.9l0.1,0.1c0,0,0.1,0.1,0.1,0.1c-0.5,0.8-1.2,1.6-2.2,2.2
				C57,52.4,42.2,53.2,37.2,53.2z"/>
			<path d="M42.3,48.6l2.8-2.8c0.1-0.1,0.1-0.3,0-0.4s-0.3-0.1-0.4,0L42,48.3L41.7,48c-0.1-0.1-0.3-0.1-0.4,0
				c-0.1,0.1-0.1,0.3,0,0.4l0.3,0.3l-1.6,1.6l-0.9-0.9l2.6-2.6c0.1-0.1,0.1-0.3,0-0.4s-0.3-0.1-0.4,0l-2.6,2.6l-2.1-2.1l2.1-2.1
				c0.1-0.1,0.1-0.3,0-0.4s-0.3-0.1-0.4,0l-4.7,4.7l-1.9-1.9c-0.1-0.1-0.3-0.1-0.4,0s-0.1,0.3,0,0.4l1.9,1.9l-1.3,1.3
				c-0.1,0.1-0.1,0.3,0,0.4s0.3,0.1,0.4,0l1.3-1.3l2,2c0.1,0.1,0.3,0.1,0.4,0c0.1-0.1,0.1-0.3,0-0.4l-2-2l2.2-2.2l2.1,2.1l-1.2,1.2
				c-0.1,0.1-0.1,0.3,0,0.4s0.3,0.1,0.4,0l1.2-1.2l0.9,0.9l-0.3,0.3c-0.1,0.1-0.1,0.3,0,0.4s0.3,0.1,0.4,0l0.3-0.3l0.6,0.6
				c0.1,0.1,0.3,0.1,0.4,0s0.1-0.3,0-0.4l-0.6-0.6L42,49l3.5,3.5c0.1,0.1,0.3,0.1,0.4,0s0.1-0.3,0-0.4L42.3,48.6z"/>
			<path d="M61.7,46.4c-0.1-0.1-0.3-0.1-0.4,0l-1.3,1.3l-0.6-0.6c-0.1-0.1-0.3-0.1-0.4,0s-0.1,0.3,0,0.4l0.6,0.6l-2.2,2.2
				c0,0,0-0.1,0-0.1l-1.9-1.9l2.3-2.3c0.1-0.1,0.1-0.3,0-0.4s-0.3-0.1-0.4,0l-2.3,2.3l-0.5-0.5c-0.1-0.1-0.3-0.1-0.4,0
				c-0.1,0.1-0.1,0.3,0,0.4l0.5,0.5l-1.5,1.5l-2.3-2.3c0,0,0,0-0.1,0l3.4-3.4c0.1-0.1,0.1-0.3,0-0.4s-0.3-0.1-0.4,0l-5.9,5.9
				l-1.8-1.8c-0.1-0.1-0.3-0.1-0.4,0s-0.1,0.3,0,0.4l1.8,1.8l-1.5,1.5c-0.1,0.1-0.1,0.3,0,0.4s0.3,0.1,0.4,0l1.5-1.5l1.2,1.2
				c0.1,0.1,0.3,0.1,0.4,0s0.1-0.3,0-0.4l-1.2-1.2l2.2-2.2c0,0,0,0,0,0.1l2.3,2.3l-1.4,1.4c-0.1,0.1-0.1,0.3,0,0.4s0.3,0.1,0.4,0
				l1.4-1.4l0.8,0.8c0.1,0.1,0.3,0.1,0.4,0s0.1-0.3,0-0.4l-0.8-0.8l1.5-1.5l1.9,1.9c0,0,0.1,0.1,0.2,0.1c0,0,0,0,0,0
				c0,0.1,0,0.1,0.1,0.2c0.1,0.1,0.3,0.1,0.4,0l2.4-2.4l1.2,1.2c0.1,0.1,0.3,0.1,0.4,0s0.1-0.3,0-0.4l-1.2-1.2l1.3-1.3
				C61.8,46.6,61.8,46.5,61.7,46.4z"/>
			<path d="M36,38.9c0-0.1-0.1-0.3-0.2-0.3c-1.5,0-3.1,0-4.6,0.1c-0.1-0.2-0.2-0.5-0.3-0.8c0-0.1-0.2-0.2-0.3-0.2
				c-0.1,0-0.2,0.2-0.2,0.3c0.1,0.2,0.1,0.4,0.2,0.7c-1.2,0-2.3,0.1-3.5,0.2l-0.2-0.4c-0.1-0.1-0.2-0.2-0.3-0.1
				c-0.1,0.1-0.2,0.2-0.1,0.3l0.1,0.2c-1.3,0.1-2.7,0.2-4,0.3c-0.1-0.2-0.3-0.4-0.3-0.6c0-0.1-0.2-0.2-0.3-0.1
				c-0.1,0-0.2,0.2-0.1,0.3c0.1,0.2,0.2,0.3,0.3,0.5c-1.2,0.1-2.3,0.3-3.5,0.4L18.2,39c0-0.1-0.2-0.2-0.3-0.2
				c-0.1,0-0.2,0.2-0.2,0.3l0.3,0.7c-1.4,0.2-2.8,0.4-4.1,0.7l-0.4-0.8c-0.1-0.1-0.2-0.2-0.3-0.1C13,39.7,12.9,39.8,13,40l0.3,0.7
				c-0.9,0.2-1.8,0.3-2.7,0.5c-0.1,0-0.2,0.2-0.2,0.3c0,0.1,0.2,0.2,0.3,0.2c1-0.2,1.9-0.4,2.9-0.6l0.4,0.8C14,42,14.1,42,14.3,42
				c0.1-0.1,0.2-0.2,0.1-0.3L14.1,41c1.3-0.2,2.7-0.5,4.1-0.6l0.3,0.9c0,0.1,0.2,0.2,0.3,0.2c0.1,0,0.2-0.2,0.2-0.3l-0.3-0.8
				c1.2-0.2,2.5-0.3,3.7-0.5c0.3,0.4,0.7,0.7,1.2,0.8c0.1,0.1,0.3,0,0.3-0.1c0.1-0.1,0-0.3-0.1-0.3c-0.3-0.1-0.5-0.3-0.7-0.5
				c1.3-0.1,2.6-0.2,3.9-0.3l0.6,1c0,0.1,0.1,0.1,0.2,0.1c0,0,0,0,0.1,0l0.2,0c0.1,0,0.2-0.2,0.2-0.3c0-0.1-0.2-0.2-0.3-0.2l0,0
				l-0.4-0.6c1.1-0.1,2.3-0.1,3.4-0.2c0.2,0.3,0.3,0.6,0.6,0.9c0.1,0.1,0.2,0.1,0.4,0c0.1-0.1,0.1-0.2,0-0.4
				c-0.1-0.2-0.3-0.4-0.4-0.6c1.5,0,2.9-0.1,4.3,0C35.8,39.2,36,39.1,36,38.9z"/>
		</g>
		<g>
			<path d="M61.9,16.2c-7-4.5-47.4-6.9-56.2-2.2c-6.6,3.5-6.2,11.3,0.7,14.2c3.7,1.6,5,1.3,36.7,1.9c0,0,0,0,0,0
				c0.3,0,0.5-0.2,0.5-0.5c0,0,0,0,0,0c3.9-0.2,14.7-1.2,18.1-3.2C66.1,23.8,66,18.9,61.9,16.2z M4.5,25.8c0.1,0,0.1,0,0.2-0.1
				L5.4,25L6,25.6c0.1,0.1,0.3,0.1,0.4,0c0.1-0.1,0.1-0.3,0-0.4l-0.6-0.6l0.8-0.8l1.2,1.2l-1.5,1.5c-0.1,0.1-0.1,0.3,0,0.4
				c0.1,0.1,0.3,0.1,0.4,0l1.5-1.5l2,2c0,0,0,0,0.1,0c-0.1,0.1-0.1,0.2,0,0.3c0.1,0.1,0.3,0.1,0.4,0l1.8-1.8l1.5,1.5l-0.1,0.1
				c-0.1,0.1-0.1,0.3,0,0.4c0.1,0.1,0.3,0.1,0.4,0l0.1-0.1l0.8,0.8c-2.7-0.1-5.6-0.2-8.1-1.3C6,26.9,5.2,26.4,4.5,25.8z M10,23.6
				l2.1,2.1l-1.5,1.5c0,0,0,0,0-0.1l-2-2L10,23.6z M12.8,25.6l2-2l1.5,1.5l-2,2L12.8,25.6z M37.2,28.8c-0.2,0-0.3,0.1-0.4,0.2
				l-21.3-0.4c0-0.1,0-0.2,0-0.2l-0.9-0.9l2-2l1.9,1.9c0.1,0.1,0.3,0.1,0.4,0s0.1-0.3,0-0.4l-1.9-1.9l1.4-1.4l2.1,2.1L19,27.1
				c-0.1,0.1-0.1,0.3,0,0.4c0.1,0.1,0.3,0.1,0.4,0l1.4-1.4l1.2,1.2c0.1,0.1,0.3,0.1,0.4,0s0.1-0.3,0-0.4l-1.2-1.2l1.5-1.5l2.5,2.5
				l-0.9,0.9c-0.1,0.1-0.1,0.3,0,0.4c0.1,0.1,0.3,0.1,0.4,0l0.9-0.9l0.7,0.7c0.1,0.1,0.3,0.1,0.4,0s0.1-0.3,0-0.4l-0.7-0.7l1.9-1.9
				l2.6,2.6c0.1,0.1,0.3,0.1,0.4,0s0.1-0.3,0-0.4L28,24.5l4.3-4.3c0.1-0.1,0.1-0.3,0-0.4s-0.3-0.1-0.4,0l-4.3,4.3l-1.5-1.5
				c-0.1-0.1-0.3-0.1-0.4,0c-0.1,0.1-0.1,0.3,0,0.4l1.5,1.5l-1.9,1.9L23,23.9l4.2-4.2c0.1-0.1,0.1-0.3,0-0.4c-0.1-0.1-0.3-0.1-0.4,0
				l-4.2,4.2l-1-1c-0.1-0.1-0.3-0.1-0.4,0c-0.1,0.1-0.1,0.3,0,0.4l1,1l-1.5,1.5l-2.1-2.1l3-3c0.1-0.1,0.1-0.3,0-0.4
				c-0.1-0.1-0.3-0.1-0.4,0l-3,3l-0.2-0.2c-0.1-0.1-0.3-0.1-0.4,0c-0.1,0.1-0.1,0.3,0,0.4l0.2,0.2l-1.4,1.4l-1.5-1.5l1-1
				c0.1-0.1,0.1-0.3,0-0.4s-0.3-0.1-0.4,0l-1,1l-0.4-0.4c-0.1-0.1-0.3-0.1-0.4,0c-0.1,0.1-0.1,0.3,0,0.4l0.4,0.4l-2,2l-2.1-2.1
				l0.9-0.9c0.1-0.1,0.1-0.3,0-0.4s-0.3-0.1-0.4,0L10,22.9c-0.1,0-0.2,0-0.2,0c-0.1,0.1-0.1,0.2-0.1,0.2l-1.6,1.6l-1.2-1.2l1.3-1.3
				c0.1-0.1,0.1-0.3,0-0.4s-0.3-0.1-0.4,0l-1.3,1.3l-0.4-0.4c-0.1-0.1-0.3-0.1-0.4,0c-0.1,0.1-0.1,0.3,0,0.4l0.4,0.4l-0.8,0.8
				l-2.5-2.5c-0.1-0.1-0.3-0.1-0.4,0s-0.1,0.3,0,0.4L5,24.6l-0.7,0.7c-0.1,0.1-0.1,0.1-0.1,0.2c-4-3.7-2.2-8.5,2-10.7
				c8.4-4.4,48.5-2.1,55.1,2.2c1.9,1.3,3.3,3.6,2.3,5.9c0,0,0,0,0,0l-0.1-0.1l0,0c0.1-0.1,0.1-0.3,0-0.4c-0.1-0.1-0.3-0.1-0.4,0l0,0
				l-0.8-0.8c-0.1-0.1-0.3-0.1-0.4,0s-0.1,0.3,0,0.4l0.8,0.8l-0.9,0.9c-0.1,0.1-0.1,0.3,0,0.4c0.1,0.1,0.3,0.1,0.4,0l0.9-0.9
				l0.1,0.1c0,0,0.1,0.1,0.1,0.1c-0.5,0.8-1.2,1.6-2.2,2.2C57,28,42.2,28.8,37.2,28.8z"/>
			<path d="M42.3,24.2l2.8-2.8c0.1-0.1,0.1-0.3,0-0.4s-0.3-0.1-0.4,0L42,23.8l-0.3-0.3c-0.1-0.1-0.3-0.1-0.4,0
				c-0.1,0.1-0.1,0.3,0,0.4l0.3,0.3l-1.6,1.6l-0.9-0.9l2.6-2.6c0.1-0.1,0.1-0.3,0-0.4s-0.3-0.1-0.4,0l-2.6,2.6l-2.1-2.1l2.1-2.1
				c0.1-0.1,0.1-0.3,0-0.4c-0.1-0.1-0.3-0.1-0.4,0l-4.7,4.7l-1.9-1.9c-0.1-0.1-0.3-0.1-0.4,0s-0.1,0.3,0,0.4l1.9,1.9l-1.3,1.3
				c-0.1,0.1-0.1,0.3,0,0.4c0.1,0.1,0.3,0.1,0.4,0l1.3-1.3l2,2c0.1,0.1,0.3,0.1,0.4,0c0.1-0.1,0.1-0.3,0-0.4l-2-2l2.2-2.2l2.1,2.1
				l-1.2,1.2c-0.1,0.1-0.1,0.3,0,0.4c0.1,0.1,0.3,0.1,0.4,0l1.2-1.2l0.9,0.9l-0.3,0.3c-0.1,0.1-0.1,0.3,0,0.4c0.1,0.1,0.3,0.1,0.4,0
				l0.3-0.3l0.6,0.6c0.1,0.1,0.3,0.1,0.4,0s0.1-0.3,0-0.4l-0.6-0.6l1.6-1.6l3.5,3.5c0.1,0.1,0.3,0.1,0.4,0s0.1-0.3,0-0.4L42.3,24.2z
				"/>
			<path d="M61.7,22c-0.1-0.1-0.3-0.1-0.4,0l-1.3,1.3l-0.6-0.6c-0.1-0.1-0.3-0.1-0.4,0s-0.1,0.3,0,0.4l0.6,0.6l-2.2,2.2
				c0,0,0-0.1,0-0.1l-1.9-1.9l2.3-2.3c0.1-0.1,0.1-0.3,0-0.4s-0.3-0.1-0.4,0l-2.3,2.3L54.6,23c-0.1-0.1-0.3-0.1-0.4,0
				c-0.1,0.1-0.1,0.3,0,0.4l0.5,0.5l-1.5,1.5l-2.3-2.3c0,0,0,0-0.1,0l3.4-3.4c0.1-0.1,0.1-0.3,0-0.4c-0.1-0.1-0.3-0.1-0.4,0
				l-5.9,5.9l-1.8-1.8c-0.1-0.1-0.3-0.1-0.4,0s-0.1,0.3,0,0.4l1.8,1.8L46.2,27c-0.1,0.1-0.1,0.3,0,0.4c0.1,0.1,0.3,0.1,0.4,0
				l1.5-1.5l1.2,1.2c0.1,0.1,0.3,0.1,0.4,0s0.1-0.3,0-0.4l-1.2-1.2l2.2-2.2c0,0,0,0,0,0.1l2.3,2.3l-1.4,1.4c-0.1,0.1-0.1,0.3,0,0.4
				c0.1,0.1,0.3,0.1,0.4,0l1.4-1.4l0.8,0.8c0.1,0.1,0.3,0.1,0.4,0s0.1-0.3,0-0.4l-0.8-0.8l1.5-1.5l1.9,1.9c0,0,0.1,0.1,0.2,0.1
				c0,0,0,0,0,0c0,0.1,0,0.1,0.1,0.2c0.1,0.1,0.3,0.1,0.4,0l2.4-2.4l1.2,1.2c0.1,0.1,0.3,0.1,0.4,0s0.1-0.3,0-0.4l-1.2-1.2l1.3-1.3
				C61.8,22.2,61.8,22.1,61.7,22z"/>
			<path d="M36,14.5c0-0.1-0.1-0.3-0.2-0.3c-1.5,0-3.1,0-4.6,0.1c-0.1-0.2-0.2-0.5-0.3-0.8c0-0.1-0.2-0.2-0.3-0.2
				c-0.1,0-0.2,0.2-0.2,0.3c0.1,0.2,0.1,0.4,0.2,0.7c-1.2,0-2.3,0.1-3.5,0.2l-0.2-0.4c-0.1-0.1-0.2-0.2-0.3-0.1
				c-0.1,0.1-0.2,0.2-0.1,0.3l0.1,0.2c-1.3,0.1-2.7,0.2-4,0.3c-0.1-0.2-0.3-0.4-0.3-0.6c0-0.1-0.2-0.2-0.3-0.1
				c-0.1,0.1-0.2,0.2-0.1,0.3c0.1,0.2,0.2,0.3,0.3,0.5c-1.2,0.1-2.3,0.3-3.5,0.4l-0.3-0.8c0-0.1-0.2-0.2-0.3-0.2
				c-0.1,0-0.2,0.2-0.2,0.3l0.3,0.7c-1.4,0.2-2.8,0.4-4.1,0.7l-0.4-0.8c-0.1-0.1-0.2-0.2-0.3-0.1c-0.1,0.1-0.2,0.2-0.1,0.3l0.3,0.7
				c-0.9,0.2-1.8,0.3-2.7,0.5c-0.1,0-0.2,0.2-0.2,0.3c0,0.1,0.2,0.2,0.3,0.2c1-0.2,1.9-0.4,2.9-0.6l0.4,0.8c0.1,0.1,0.2,0.2,0.3,0.1
				c0.1-0.1,0.2-0.2,0.1-0.3l-0.3-0.6c1.3-0.2,2.7-0.5,4.1-0.6l0.3,0.9c0,0.1,0.2,0.2,0.3,0.2c0.1,0,0.2-0.2,0.2-0.3l-0.3-0.8
				c1.2-0.2,2.5-0.3,3.7-0.5c0.3,0.4,0.7,0.7,1.2,0.8c0.1,0.1,0.3,0,0.3-0.1c0.1-0.1,0-0.3-0.1-0.3c-0.3-0.1-0.5-0.3-0.7-0.5
				c1.3-0.1,2.6-0.2,3.9-0.3l0.6,1c0,0.1,0.1,0.1,0.2,0.1c0,0,0,0,0.1,0l0.2,0c0.1,0,0.2-0.2,0.2-0.3c0-0.1-0.2-0.2-0.3-0.2l0,0
				L27.4,15c1.1-0.1,2.3-0.1,3.4-0.2c0.2,0.3,0.3,0.6,0.6,0.9c0.1,0.1,0.2,0.1,0.4,0c0.1-0.1,0.1-0.2,0-0.4
				c-0.1-0.2-0.3-0.4-0.4-0.6c1.5,0,2.9-0.1,4.3,0C35.8,14.8,36,14.6,36,14.5z"/>
		</g>
	</g>
	<g>
		<path d="M61.9,40.6c-7-4.5-47.4-6.9-56.2-2.2c-6.6,3.5-6.2,11.3,0.7,14.2c3.7,1.6,5,1.3,36.7,1.9c0,0,0,0,0,0
			c0.3,0,0.5-0.2,0.5-0.5c0,0,0,0,0,0c3.9-0.2,14.7-1.2,18.1-3.2C66.1,48.3,66,43.3,61.9,40.6z M4.5,50.2c0.1,0,0.1,0,0.2-0.1
			l0.7-0.7L6,50.1c0.1,0.1,0.3,0.1,0.4,0c0.1-0.1,0.1-0.3,0-0.4l-0.6-0.6l0.8-0.8l1.2,1.2l-1.5,1.5c-0.1,0.1-0.1,0.3,0,0.4
			s0.3,0.1,0.4,0l1.5-1.5l2,2c0,0,0,0,0.1,0c-0.1,0.1-0.1,0.2,0,0.3c0.1,0.1,0.3,0.1,0.4,0l1.8-1.8l1.5,1.5l-0.1,0.1
			c-0.1,0.1-0.1,0.3,0,0.4s0.3,0.1,0.4,0l0.1-0.1L15,53c-2.7-0.1-5.6-0.2-8.1-1.3C6,51.4,5.2,50.9,4.5,50.2z M10,48L12,50l-1.5,1.5
			c0,0,0,0,0-0.1l-2-2L10,48z M12.8,50l2-2l1.5,1.5l-2,2L12.8,50z M37.2,53.2c-0.2,0-0.3,0.1-0.4,0.2L15.5,53c0-0.1,0-0.2,0-0.2
			l-0.9-0.9l2-2l1.9,1.9c0.1,0.1,0.3,0.1,0.4,0s0.1-0.3,0-0.4l-1.9-1.9l1.4-1.4l2.1,2.1L19,51.6c-0.1,0.1-0.1,0.3,0,0.4
			s0.3,0.1,0.4,0l1.4-1.4l1.2,1.2c0.1,0.1,0.3,0.1,0.4,0s0.1-0.3,0-0.4l-1.2-1.2l1.5-1.5l2.5,2.5l-0.9,0.9c-0.1,0.1-0.1,0.3,0,0.4
			s0.3,0.1,0.4,0l0.9-0.9l0.7,0.7c0.1,0.1,0.3,0.1,0.4,0s0.1-0.3,0-0.4l-0.7-0.7l1.9-1.9l2.6,2.6c0.1,0.1,0.3,0.1,0.4,0
			s0.1-0.3,0-0.4L28,49l4.3-4.3c0.1-0.1,0.1-0.3,0-0.4s-0.3-0.1-0.4,0l-4.3,4.3l-1.5-1.5c-0.1-0.1-0.3-0.1-0.4,0
			c-0.1,0.1-0.1,0.3,0,0.4l1.5,1.5l-1.9,1.9L23,48.3l4.2-4.2c0.1-0.1,0.1-0.3,0-0.4s-0.3-0.1-0.4,0L22.6,48l-1-1
			c-0.1-0.1-0.3-0.1-0.4,0c-0.1,0.1-0.1,0.3,0,0.4l1,1l-1.5,1.5l-2.1-2.1l3-3c0.1-0.1,0.1-0.3,0-0.4s-0.3-0.1-0.4,0l-3,3l-0.2-0.2
			c-0.1-0.1-0.3-0.1-0.4,0c-0.1,0.1-0.1,0.3,0,0.4l0.2,0.2l-1.4,1.4l-1.5-1.5l1-1c0.1-0.1,0.1-0.3,0-0.4s-0.3-0.1-0.4,0l-1,1
			L14.4,47c-0.1-0.1-0.3-0.1-0.4,0c-0.1,0.1-0.1,0.3,0,0.4l0.4,0.4l-2,2l-2.1-2.1l0.9-0.9c0.1-0.1,0.1-0.3,0-0.4s-0.3-0.1-0.4,0
			L10,47.3c-0.1,0-0.2,0-0.2,0c-0.1,0.1-0.1,0.2,0,0.2l-1.6,1.6l-1.2-1.2l1.3-1.3c0.1-0.1,0.1-0.3,0-0.4s-0.3-0.1-0.4,0l-1.3,1.3
			l-0.4-0.4C6,47,5.8,47,5.7,47.1c-0.1,0.1-0.1,0.3,0,0.4l0.4,0.4l-0.8,0.8l-2.5-2.5c-0.1-0.1-0.3-0.1-0.4,0s-0.1,0.3,0,0.4L5,49.1
			l-0.7,0.7c-0.1,0.1-0.1,0.1-0.1,0.2c-4-3.7-2.2-8.5,2-10.7c8.4-4.4,48.5-2.1,55.1,2.2c1.9,1.3,3.3,3.6,2.3,5.9c0,0,0,0,0,0
			l-0.1-0.1l0,0c0.1-0.1,0.1-0.3,0-0.4s-0.3-0.1-0.4,0l0,0l-0.8-0.8c-0.1-0.1-0.3-0.1-0.4,0s-0.1,0.3,0,0.4l0.8,0.8l-0.9,0.9
			c-0.1,0.1-0.1,0.3,0,0.4s0.3,0.1,0.4,0l0.9-0.9l0.1,0.1c0,0,0.1,0.1,0.1,0.1c-0.5,0.8-1.2,1.6-2.2,2.2
			C57,52.4,42.2,53.2,37.2,53.2z"/>
		<path d="M42.3,48.6l2.8-2.8c0.1-0.1,0.1-0.3,0-0.4s-0.3-0.1-0.4,0L42,48.3L41.7,48c-0.1-0.1-0.3-0.1-0.4,0c-0.1,0.1-0.1,0.3,0,0.4
			l0.3,0.3l-1.6,1.6l-0.9-0.9l2.6-2.6c0.1-0.1,0.1-0.3,0-0.4s-0.3-0.1-0.4,0l-2.6,2.6l-2.1-2.1l2.1-2.1c0.1-0.1,0.1-0.3,0-0.4
			s-0.3-0.1-0.4,0l-4.7,4.7l-1.9-1.9c-0.1-0.1-0.3-0.1-0.4,0s-0.1,0.3,0,0.4l1.9,1.9l-1.3,1.3c-0.1,0.1-0.1,0.3,0,0.4s0.3,0.1,0.4,0
			l1.3-1.3l2,2c0.1,0.1,0.3,0.1,0.4,0c0.1-0.1,0.1-0.3,0-0.4l-2-2l2.2-2.2l2.1,2.1l-1.2,1.2c-0.1,0.1-0.1,0.3,0,0.4s0.3,0.1,0.4,0
			l1.2-1.2l0.9,0.9l-0.3,0.3c-0.1,0.1-0.1,0.3,0,0.4s0.3,0.1,0.4,0l0.3-0.3l0.6,0.6c0.1,0.1,0.3,0.1,0.4,0s0.1-0.3,0-0.4l-0.6-0.6
			L42,49l3.5,3.5c0.1,0.1,0.3,0.1,0.4,0s0.1-0.3,0-0.4L42.3,48.6z"/>
		<path d="M61.7,46.4c-0.1-0.1-0.3-0.1-0.4,0l-1.3,1.3l-0.6-0.6c-0.1-0.1-0.3-0.1-0.4,0s-0.1,0.3,0,0.4l0.6,0.6l-2.2,2.2
			c0,0,0-0.1,0-0.1l-1.9-1.9l2.3-2.3c0.1-0.1,0.1-0.3,0-0.4s-0.3-0.1-0.4,0l-2.3,2.3l-0.5-0.5c-0.1-0.1-0.3-0.1-0.4,0
			c-0.1,0.1-0.1,0.3,0,0.4l0.5,0.5l-1.5,1.5l-2.3-2.3c0,0,0,0-0.1,0l3.4-3.4c0.1-0.1,0.1-0.3,0-0.4s-0.3-0.1-0.4,0l-5.9,5.9
			l-1.8-1.8c-0.1-0.1-0.3-0.1-0.4,0s-0.1,0.3,0,0.4l1.8,1.8l-1.5,1.5c-0.1,0.1-0.1,0.3,0,0.4s0.3,0.1,0.4,0l1.5-1.5l1.2,1.2
			c0.1,0.1,0.3,0.1,0.4,0s0.1-0.3,0-0.4l-1.2-1.2l2.2-2.2c0,0,0,0,0,0.1l2.3,2.3l-1.4,1.4c-0.1,0.1-0.1,0.3,0,0.4s0.3,0.1,0.4,0
			l1.4-1.4l0.8,0.8c0.1,0.1,0.3,0.1,0.4,0s0.1-0.3,0-0.4l-0.8-0.8l1.5-1.5l1.9,1.9c0,0,0.1,0.1,0.2,0.1c0,0,0,0,0,0
			c0,0.1,0,0.1,0.1,0.2c0.1,0.1,0.3,0.1,0.4,0l2.4-2.4l1.2,1.2c0.1,0.1,0.3,0.1,0.4,0s0.1-0.3,0-0.4l-1.2-1.2l1.3-1.3
			C61.8,46.6,61.8,46.5,61.7,46.4z"/>
		<path d="M36,38.9c0-0.1-0.1-0.3-0.2-0.3c-1.5,0-3.1,0-4.6,0.1c-0.1-0.2-0.2-0.5-0.3-0.8c0-0.1-0.2-0.2-0.3-0.2
			c-0.1,0-0.2,0.2-0.2,0.3c0.1,0.2,0.1,0.4,0.2,0.7c-1.2,0-2.3,0.1-3.5,0.2l-0.2-0.4c-0.1-0.1-0.2-0.2-0.3-0.1
			c-0.1,0.1-0.2,0.2-0.1,0.3l0.1,0.2c-1.3,0.1-2.7,0.2-4,0.3c-0.1-0.2-0.3-0.4-0.3-0.6c0-0.1-0.2-0.2-0.3-0.1
			c-0.1,0-0.2,0.2-0.1,0.3c0.1,0.2,0.2,0.3,0.3,0.5c-1.2,0.1-2.3,0.3-3.5,0.4L18.2,39c0-0.1-0.2-0.2-0.3-0.2c-0.1,0-0.2,0.2-0.2,0.3
			l0.3,0.7c-1.4,0.2-2.8,0.4-4.1,0.7l-0.4-0.8c-0.1-0.1-0.2-0.2-0.3-0.1C13,39.7,12.9,39.8,13,40l0.3,0.7c-0.9,0.2-1.8,0.3-2.7,0.5
			c-0.1,0-0.2,0.2-0.2,0.3c0,0.1,0.2,0.2,0.3,0.2c1-0.2,1.9-0.4,2.9-0.6l0.4,0.8C14,42,14.1,42,14.3,42c0.1-0.1,0.2-0.2,0.1-0.3
			L14.1,41c1.3-0.2,2.7-0.5,4.1-0.6l0.3,0.9c0,0.1,0.2,0.2,0.3,0.2c0.1,0,0.2-0.2,0.2-0.3l-0.3-0.8c1.2-0.2,2.5-0.3,3.7-0.5
			c0.3,0.4,0.7,0.7,1.2,0.8c0.1,0.1,0.3,0,0.3-0.1c0.1-0.1,0-0.3-0.1-0.3c-0.3-0.1-0.5-0.3-0.7-0.5c1.3-0.1,2.6-0.2,3.9-0.3l0.6,1
			c0,0.1,0.1,0.1,0.2,0.1c0,0,0,0,0.1,0l0.2,0c0.1,0,0.2-0.2,0.2-0.3c0-0.1-0.2-0.2-0.3-0.2l0,0l-0.4-0.6c1.1-0.1,2.3-0.1,3.4-0.2
			c0.2,0.3,0.3,0.6,0.6,0.9c0.1,0.1,0.2,0.1,0.4,0c0.1-0.1,0.1-0.2,0-0.4c-0.1-0.2-0.3-0.4-0.4-0.6c1.5,0,2.9-0.1,4.3,0
			C35.8,39.2,36,39.1,36,38.9z"/>
	</g>
	<g>
		<g>
			<path d="M61.9,40.6c-7-4.5-47.4-6.9-56.2-2.2c-6.6,3.5-6.2,11.3,0.7,14.2c3.7,1.6,5,1.3,36.7,1.9c0,0,0,0,0,0
				c0.3,0,0.5-0.2,0.5-0.5c0,0,0,0,0,0c3.9-0.2,14.7-1.2,18.1-3.2C66.1,48.3,66,43.3,61.9,40.6z M4.5,50.2c0.1,0,0.1,0,0.2-0.1
				l0.7-0.7L6,50.1c0.1,0.1,0.3,0.1,0.4,0c0.1-0.1,0.1-0.3,0-0.4l-0.6-0.6l0.8-0.8l1.2,1.2l-1.5,1.5c-0.1,0.1-0.1,0.3,0,0.4
				s0.3,0.1,0.4,0l1.5-1.5l2,2c0,0,0,0,0.1,0c-0.1,0.1-0.1,0.2,0,0.3c0.1,0.1,0.3,0.1,0.4,0l1.8-1.8l1.5,1.5l-0.1,0.1
				c-0.1,0.1-0.1,0.3,0,0.4s0.3,0.1,0.4,0l0.1-0.1L15,53c-2.7-0.1-5.6-0.2-8.1-1.3C6,51.4,5.2,50.9,4.5,50.2z M10,48L12,50l-1.5,1.5
				c0,0,0,0,0-0.1l-2-2L10,48z M12.8,50l2-2l1.5,1.5l-2,2L12.8,50z M37.2,53.2c-0.2,0-0.3,0.1-0.4,0.2L15.5,53c0-0.1,0-0.2,0-0.2
				l-0.9-0.9l2-2l1.9,1.9c0.1,0.1,0.3,0.1,0.4,0s0.1-0.3,0-0.4l-1.9-1.9l1.4-1.4l2.1,2.1L19,51.6c-0.1,0.1-0.1,0.3,0,0.4
				s0.3,0.1,0.4,0l1.4-1.4l1.2,1.2c0.1,0.1,0.3,0.1,0.4,0s0.1-0.3,0-0.4l-1.2-1.2l1.5-1.5l2.5,2.5l-0.9,0.9c-0.1,0.1-0.1,0.3,0,0.4
				s0.3,0.1,0.4,0l0.9-0.9l0.7,0.7c0.1,0.1,0.3,0.1,0.4,0s0.1-0.3,0-0.4l-0.7-0.7l1.9-1.9l2.6,2.6c0.1,0.1,0.3,0.1,0.4,0
				s0.1-0.3,0-0.4L28,49l4.3-4.3c0.1-0.1,0.1-0.3,0-0.4s-0.3-0.1-0.4,0l-4.3,4.3l-1.5-1.5c-0.1-0.1-0.3-0.1-0.4,0
				c-0.1,0.1-0.1,0.3,0,0.4l1.5,1.5l-1.9,1.9L23,48.3l4.2-4.2c0.1-0.1,0.1-0.3,0-0.4s-0.3-0.1-0.4,0L22.6,48l-1-1
				c-0.1-0.1-0.3-0.1-0.4,0c-0.1,0.1-0.1,0.3,0,0.4l1,1l-1.5,1.5l-2.1-2.1l3-3c0.1-0.1,0.1-0.3,0-0.4s-0.3-0.1-0.4,0l-3,3l-0.2-0.2
				c-0.1-0.1-0.3-0.1-0.4,0c-0.1,0.1-0.1,0.3,0,0.4l0.2,0.2l-1.4,1.4l-1.5-1.5l1-1c0.1-0.1,0.1-0.3,0-0.4s-0.3-0.1-0.4,0l-1,1
				L14.4,47c-0.1-0.1-0.3-0.1-0.4,0c-0.1,0.1-0.1,0.3,0,0.4l0.4,0.4l-2,2l-2.1-2.1l0.9-0.9c0.1-0.1,0.1-0.3,0-0.4s-0.3-0.1-0.4,0
				L10,47.3c-0.1,0-0.2,0-0.2,0c-0.1,0.1-0.1,0.2,0,0.2l-1.6,1.6l-1.2-1.2l1.3-1.3c0.1-0.1,0.1-0.3,0-0.4s-0.3-0.1-0.4,0l-1.3,1.3
				l-0.4-0.4C6,47,5.8,47,5.7,47.1c-0.1,0.1-0.1,0.3,0,0.4l0.4,0.4l-0.8,0.8l-2.5-2.5c-0.1-0.1-0.3-0.1-0.4,0s-0.1,0.3,0,0.4L5,49.1
				l-0.7,0.7c-0.1,0.1-0.1,0.1-0.1,0.2c-4-3.7-2.2-8.5,2-10.7c8.4-4.4,48.5-2.1,55.1,2.2c1.9,1.3,3.3,3.6,2.3,5.9c0,0,0,0,0,0
				l-0.1-0.1l0,0c0.1-0.1,0.1-0.3,0-0.4s-0.3-0.1-0.4,0l0,0l-0.8-0.8c-0.1-0.1-0.3-0.1-0.4,0s-0.1,0.3,0,0.4l0.8,0.8l-0.9,0.9
				c-0.1,0.1-0.1,0.3,0,0.4s0.3,0.1,0.4,0l0.9-0.9l0.1,0.1c0,0,0.1,0.1,0.1,0.1c-0.5,0.8-1.2,1.6-2.2,2.2
				C57,52.4,42.2,53.2,37.2,53.2z"/>
			<path d="M42.3,48.6l2.8-2.8c0.1-0.1,0.1-0.3,0-0.4s-0.3-0.1-0.4,0L42,48.3L41.7,48c-0.1-0.1-0.3-0.1-0.4,0
				c-0.1,0.1-0.1,0.3,0,0.4l0.3,0.3l-1.6,1.6l-0.9-0.9l2.6-2.6c0.1-0.1,0.1-0.3,0-0.4s-0.3-0.1-0.4,0l-2.6,2.6l-2.1-2.1l2.1-2.1
				c0.1-0.1,0.1-0.3,0-0.4s-0.3-0.1-0.4,0l-4.7,4.7l-1.9-1.9c-0.1-0.1-0.3-0.1-0.4,0s-0.1,0.3,0,0.4l1.9,1.9l-1.3,1.3
				c-0.1,0.1-0.1,0.3,0,0.4s0.3,0.1,0.4,0l1.3-1.3l2,2c0.1,0.1,0.3,0.1,0.4,0c0.1-0.1,0.1-0.3,0-0.4l-2-2l2.2-2.2l2.1,2.1l-1.2,1.2
				c-0.1,0.1-0.1,0.3,0,0.4s0.3,0.1,0.4,0l1.2-1.2l0.9,0.9l-0.3,0.3c-0.1,0.1-0.1,0.3,0,0.4s0.3,0.1,0.4,0l0.3-0.3l0.6,0.6
				c0.1,0.1,0.3,0.1,0.4,0s0.1-0.3,0-0.4l-0.6-0.6L42,49l3.5,3.5c0.1,0.1,0.3,0.1,0.4,0s0.1-0.3,0-0.4L42.3,48.6z"/>
			<path d="M61.7,46.4c-0.1-0.1-0.3-0.1-0.4,0l-1.3,1.3l-0.6-0.6c-0.1-0.1-0.3-0.1-0.4,0s-0.1,0.3,0,0.4l0.6,0.6l-2.2,2.2
				c0,0,0-0.1,0-0.1l-1.9-1.9l2.3-2.3c0.1-0.1,0.1-0.3,0-0.4s-0.3-0.1-0.4,0l-2.3,2.3l-0.5-0.5c-0.1-0.1-0.3-0.1-0.4,0
				c-0.1,0.1-0.1,0.3,0,0.4l0.5,0.5l-1.5,1.5l-2.3-2.3c0,0,0,0-0.1,0l3.4-3.4c0.1-0.1,0.1-0.3,0-0.4s-0.3-0.1-0.4,0l-5.9,5.9
				l-1.8-1.8c-0.1-0.1-0.3-0.1-0.4,0s-0.1,0.3,0,0.4l1.8,1.8l-1.5,1.5c-0.1,0.1-0.1,0.3,0,0.4s0.3,0.1,0.4,0l1.5-1.5l1.2,1.2
				c0.1,0.1,0.3,0.1,0.4,0s0.1-0.3,0-0.4l-1.2-1.2l2.2-2.2c0,0,0,0,0,0.1l2.3,2.3l-1.4,1.4c-0.1,0.1-0.1,0.3,0,0.4s0.3,0.1,0.4,0
				l1.4-1.4l0.8,0.8c0.1,0.1,0.3,0.1,0.4,0s0.1-0.3,0-0.4l-0.8-0.8l1.5-1.5l1.9,1.9c0,0,0.1,0.1,0.2,0.1c0,0,0,0,0,0
				c0,0.1,0,0.1,0.1,0.2c0.1,0.1,0.3,0.1,0.4,0l2.4-2.4l1.2,1.2c0.1,0.1,0.3,0.1,0.4,0s0.1-0.3,0-0.4l-1.2-1.2l1.3-1.3
				C61.8,46.6,61.8,46.5,61.7,46.4z"/>
			<path d="M36,38.9c0-0.1-0.1-0.3-0.2-0.3c-1.5,0-3.1,0-4.6,0.1c-0.1-0.2-0.2-0.5-0.3-0.8c0-0.1-0.2-0.2-0.3-0.2
				c-0.1,0-0.2,0.2-0.2,0.3c0.1,0.2,0.1,0.4,0.2,0.7c-1.2,0-2.3,0.1-3.5,0.2l-0.2-0.4c-0.1-0.1-0.2-0.2-0.3-0.1
				c-0.1,0.1-0.2,0.2-0.1,0.3l0.1,0.2c-1.3,0.1-2.7,0.2-4,0.3c-0.1-0.2-0.3-0.4-0.3-0.6c0-0.1-0.2-0.2-0.3-0.1
				c-0.1,0-0.2,0.2-0.1,0.3c0.1,0.2,0.2,0.3,0.3,0.5c-1.2,0.1-2.3,0.3-3.5,0.4L18.2,39c0-0.1-0.2-0.2-0.3-0.2
				c-0.1,0-0.2,0.2-0.2,0.3l0.3,0.7c-1.4,0.2-2.8,0.4-4.1,0.7l-0.4-0.8c-0.1-0.1-0.2-0.2-0.3-0.1C13,39.7,12.9,39.8,13,40l0.3,0.7
				c-0.9,0.2-1.8,0.3-2.7,0.5c-0.1,0-0.2,0.2-0.2,0.3c0,0.1,0.2,0.2,0.3,0.2c1-0.2,1.9-0.4,2.9-0.6l0.4,0.8C14,42,14.1,42,14.3,42
				c0.1-0.1,0.2-0.2,0.1-0.3L14.1,41c1.3-0.2,2.7-0.5,4.1-0.6l0.3,0.9c0,0.1,0.2,0.2,0.3,0.2c0.1,0,0.2-0.2,0.2-0.3l-0.3-0.8
				c1.2-0.2,2.5-0.3,3.7-0.5c0.3,0.4,0.7,0.7,1.2,0.8c0.1,0.1,0.3,0,0.3-0.1c0.1-0.1,0-0.3-0.1-0.3c-0.3-0.1-0.5-0.3-0.7-0.5
				c1.3-0.1,2.6-0.2,3.9-0.3l0.6,1c0,0.1,0.1,0.1,0.2,0.1c0,0,0,0,0.1,0l0.2,0c0.1,0,0.2-0.2,0.2-0.3c0-0.1-0.2-0.2-0.3-0.2l0,0
				l-0.4-0.6c1.1-0.1,2.3-0.1,3.4-0.2c0.2,0.3,0.3,0.6,0.6,0.9c0.1,0.1,0.2,0.1,0.4,0c0.1-0.1,0.1-0.2,0-0.4
				c-0.1-0.2-0.3-0.4-0.4-0.6c1.5,0,2.9-0.1,4.3,0C35.8,39.2,36,39.1,36,38.9z"/>
		</g>
		<g>
			<path d="M61.9,16.2c-7-4.5-47.4-6.9-56.2-2.2c-6.6,3.5-6.2,11.3,0.7,14.2c3.7,1.6,5,1.3,36.7,1.9c0,0,0,0,0,0
				c0.3,0,0.5-0.2,0.5-0.5c0,0,0,0,0,0c3.9-0.2,14.7-1.2,18.1-3.2C66.1,23.8,66,18.9,61.9,16.2z M4.5,25.8c0.1,0,0.1,0,0.2-0.1
				L5.4,25L6,25.6c0.1,0.1,0.3,0.1,0.4,0c0.1-0.1,0.1-0.3,0-0.4l-0.6-0.6l0.8-0.8l1.2,1.2l-1.5,1.5c-0.1,0.1-0.1,0.3,0,0.4
				c0.1,0.1,0.3,0.1,0.4,0l1.5-1.5l2,2c0,0,0,0,0.1,0c-0.1,0.1-0.1,0.2,0,0.3c0.1,0.1,0.3,0.1,0.4,0l1.8-1.8l1.5,1.5l-0.1,0.1
				c-0.1,0.1-0.1,0.3,0,0.4c0.1,0.1,0.3,0.1,0.4,0l0.1-0.1l0.8,0.8c-2.7-0.1-5.6-0.2-8.1-1.3C6,26.9,5.2,26.4,4.5,25.8z M10,23.6
				l2.1,2.1l-1.5,1.5c0,0,0,0,0-0.1l-2-2L10,23.6z M12.8,25.6l2-2l1.5,1.5l-2,2L12.8,25.6z M37.2,28.8c-0.2,0-0.3,0.1-0.4,0.2
				l-21.3-0.4c0-0.1,0-0.2,0-0.2l-0.9-0.9l2-2l1.9,1.9c0.1,0.1,0.3,0.1,0.4,0s0.1-0.3,0-0.4l-1.9-1.9l1.4-1.4l2.1,2.1L19,27.1
				c-0.1,0.1-0.1,0.3,0,0.4c0.1,0.1,0.3,0.1,0.4,0l1.4-1.4l1.2,1.2c0.1,0.1,0.3,0.1,0.4,0s0.1-0.3,0-0.4l-1.2-1.2l1.5-1.5l2.5,2.5
				l-0.9,0.9c-0.1,0.1-0.1,0.3,0,0.4c0.1,0.1,0.3,0.1,0.4,0l0.9-0.9l0.7,0.7c0.1,0.1,0.3,0.1,0.4,0s0.1-0.3,0-0.4l-0.7-0.7l1.9-1.9
				l2.6,2.6c0.1,0.1,0.3,0.1,0.4,0s0.1-0.3,0-0.4L28,24.5l4.3-4.3c0.1-0.1,0.1-0.3,0-0.4s-0.3-0.1-0.4,0l-4.3,4.3l-1.5-1.5
				c-0.1-0.1-0.3-0.1-0.4,0c-0.1,0.1-0.1,0.3,0,0.4l1.5,1.5l-1.9,1.9L23,23.9l4.2-4.2c0.1-0.1,0.1-0.3,0-0.4c-0.1-0.1-0.3-0.1-0.4,0
				l-4.2,4.2l-1-1c-0.1-0.1-0.3-0.1-0.4,0c-0.1,0.1-0.1,0.3,0,0.4l1,1l-1.5,1.5l-2.1-2.1l3-3c0.1-0.1,0.1-0.3,0-0.4
				c-0.1-0.1-0.3-0.1-0.4,0l-3,3l-0.2-0.2c-0.1-0.1-0.3-0.1-0.4,0c-0.1,0.1-0.1,0.3,0,0.4l0.2,0.2l-1.4,1.4l-1.5-1.5l1-1
				c0.1-0.1,0.1-0.3,0-0.4s-0.3-0.1-0.4,0l-1,1l-0.4-0.4c-0.1-0.1-0.3-0.1-0.4,0c-0.1,0.1-0.1,0.3,0,0.4l0.4,0.4l-2,2l-2.1-2.1
				l0.9-0.9c0.1-0.1,0.1-0.3,0-0.4s-0.3-0.1-0.4,0L10,22.9c-0.1,0-0.2,0-0.2,0c-0.1,0.1-0.1,0.2-0.1,0.2l-1.6,1.6l-1.2-1.2l1.3-1.3
				c0.1-0.1,0.1-0.3,0-0.4s-0.3-0.1-0.4,0l-1.3,1.3l-0.4-0.4c-0.1-0.1-0.3-0.1-0.4,0c-0.1,0.1-0.1,0.3,0,0.4l0.4,0.4l-0.8,0.8
				l-2.5-2.5c-0.1-0.1-0.3-0.1-0.4,0s-0.1,0.3,0,0.4L5,24.6l-0.7,0.7c-0.1,0.1-0.1,0.1-0.1,0.2c-4-3.7-2.2-8.5,2-10.7
				c8.4-4.4,48.5-2.1,55.1,2.2c1.9,1.3,3.3,3.6,2.3,5.9c0,0,0,0,0,0l-0.1-0.1l0,0c0.1-0.1,0.1-0.3,0-0.4c-0.1-0.1-0.3-0.1-0.4,0l0,0
				l-0.8-0.8c-0.1-0.1-0.3-0.1-0.4,0s-0.1,0.3,0,0.4l0.8,0.8l-0.9,0.9c-0.1,0.1-0.1,0.3,0,0.4c0.1,0.1,0.3,0.1,0.4,0l0.9-0.9
				l0.1,0.1c0,0,0.1,0.1,0.1,0.1c-0.5,0.8-1.2,1.6-2.2,2.2C57,28,42.2,28.8,37.2,28.8z"/>
			<path d="M42.3,24.2l2.8-2.8c0.1-0.1,0.1-0.3,0-0.4s-0.3-0.1-0.4,0L42,23.8l-0.3-0.3c-0.1-0.1-0.3-0.1-0.4,0
				c-0.1,0.1-0.1,0.3,0,0.4l0.3,0.3l-1.6,1.6l-0.9-0.9l2.6-2.6c0.1-0.1,0.1-0.3,0-0.4s-0.3-0.1-0.4,0l-2.6,2.6l-2.1-2.1l2.1-2.1
				c0.1-0.1,0.1-0.3,0-0.4c-0.1-0.1-0.3-0.1-0.4,0l-4.7,4.7l-1.9-1.9c-0.1-0.1-0.3-0.1-0.4,0s-0.1,0.3,0,0.4l1.9,1.9l-1.3,1.3
				c-0.1,0.1-0.1,0.3,0,0.4c0.1,0.1,0.3,0.1,0.4,0l1.3-1.3l2,2c0.1,0.1,0.3,0.1,0.4,0c0.1-0.1,0.1-0.3,0-0.4l-2-2l2.2-2.2l2.1,2.1
				l-1.2,1.2c-0.1,0.1-0.1,0.3,0,0.4c0.1,0.1,0.3,0.1,0.4,0l1.2-1.2l0.9,0.9l-0.3,0.3c-0.1,0.1-0.1,0.3,0,0.4c0.1,0.1,0.3,0.1,0.4,0
				l0.3-0.3l0.6,0.6c0.1,0.1,0.3,0.1,0.4,0s0.1-0.3,0-0.4l-0.6-0.6l1.6-1.6l3.5,3.5c0.1,0.1,0.3,0.1,0.4,0s0.1-0.3,0-0.4L42.3,24.2z
				"/>
			<path d="M61.7,22c-0.1-0.1-0.3-0.1-0.4,0l-1.3,1.3l-0.6-0.6c-0.1-0.1-0.3-0.1-0.4,0s-0.1,0.3,0,0.4l0.6,0.6l-2.2,2.2
				c0,0,0-0.1,0-0.1l-1.9-1.9l2.3-2.3c0.1-0.1,0.1-0.3,0-0.4s-0.3-0.1-0.4,0l-2.3,2.3L54.6,23c-0.1-0.1-0.3-0.1-0.4,0
				c-0.1,0.1-0.1,0.3,0,0.4l0.5,0.5l-1.5,1.5l-2.3-2.3c0,0,0,0-0.1,0l3.4-3.4c0.1-0.1,0.1-0.3,0-0.4c-0.1-0.1-0.3-0.1-0.4,0
				l-5.9,5.9l-1.8-1.8c-0.1-0.1-0.3-0.1-0.4,0s-0.1,0.3,0,0.4l1.8,1.8L46.2,27c-0.1,0.1-0.1,0.3,0,0.4c0.1,0.1,0.3,0.1,0.4,0
				l1.5-1.5l1.2,1.2c0.1,0.1,0.3,0.1,0.4,0s0.1-0.3,0-0.4l-1.2-1.2l2.2-2.2c0,0,0,0,0,0.1l2.3,2.3l-1.4,1.4c-0.1,0.1-0.1,0.3,0,0.4
				c0.1,0.1,0.3,0.1,0.4,0l1.4-1.4l0.8,0.8c0.1,0.1,0.3,0.1,0.4,0s0.1-0.3,0-0.4l-0.8-0.8l1.5-1.5l1.9,1.9c0,0,0.1,0.1,0.2,0.1
				c0,0,0,0,0,0c0,0.1,0,0.1,0.1,0.2c0.1,0.1,0.3,0.1,0.4,0l2.4-2.4l1.2,1.2c0.1,0.1,0.3,0.1,0.4,0s0.1-0.3,0-0.4l-1.2-1.2l1.3-1.3
				C61.8,22.2,61.8,22.1,61.7,22z"/>
			<path d="M36,14.5c0-0.1-0.1-0.3-0.2-0.3c-1.5,0-3.1,0-4.6,0.1c-0.1-0.2-0.2-0.5-0.3-0.8c0-0.1-0.2-0.2-0.3-0.2
				c-0.1,0-0.2,0.2-0.2,0.3c0.1,0.2,0.1,0.4,0.2,0.7c-1.2,0-2.3,0.1-3.5,0.2l-0.2-0.4c-0.1-0.1-0.2-0.2-0.3-0.1
				c-0.1,0.1-0.2,0.2-0.1,0.3l0.1,0.2c-1.3,0.1-2.7,0.2-4,0.3c-0.1-0.2-0.3-0.4-0.3-0.6c0-0.1-0.2-0.2-0.3-0.1
				c-0.1,0.1-0.2,0.2-0.1,0.3c0.1,0.2,0.2,0.3,0.3,0.5c-1.2,0.1-2.3,0.3-3.5,0.4l-0.3-0.8c0-0.1-0.2-0.2-0.3-0.2
				c-0.1,0-0.2,0.2-0.2,0.3l0.3,0.7c-1.4,0.2-2.8,0.4-4.1,0.7l-0.4-0.8c-0.1-0.1-0.2-0.2-0.3-0.1c-0.1,0.1-0.2,0.2-0.1,0.3l0.3,0.7
				c-0.9,0.2-1.8,0.3-2.7,0.5c-0.1,0-0.2,0.2-0.2,0.3c0,0.1,0.2,0.2,0.3,0.2c1-0.2,1.9-0.4,2.9-0.6l0.4,0.8c0.1,0.1,0.2,0.2,0.3,0.1
				c0.1-0.1,0.2-0.2,0.1-0.3l-0.3-0.6c1.3-0.2,2.7-0.5,4.1-0.6l0.3,0.9c0,0.1,0.2,0.2,0.3,0.2c0.1,0,0.2-0.2,0.2-0.3l-0.3-0.8
				c1.2-0.2,2.5-0.3,3.7-0.5c0.3,0.4,0.7,0.7,1.2,0.8c0.1,0.1,0.3,0,0.3-0.1c0.1-0.1,0-0.3-0.1-0.3c-0.3-0.1-0.5-0.3-0.7-0.5
				c1.3-0.1,2.6-0.2,3.9-0.3l0.6,1c0,0.1,0.1,0.1,0.2,0.1c0,0,0,0,0.1,0l0.2,0c0.1,0,0.2-0.2,0.2-0.3c0-0.1-0.2-0.2-0.3-0.2l0,0
				L27.4,15c1.1-0.1,2.3-0.1,3.4-0.2c0.2,0.3,0.3,0.6,0.6,0.9c0.1,0.1,0.2,0.1,0.4,0c0.1-0.1,0.1-0.2,0-0.4
				c-0.1-0.2-0.3-0.4-0.4-0.6c1.5,0,2.9-0.1,4.3,0C35.8,14.8,36,14.6,36,14.5z"/>
		</g>
	</g>
</g>
</svg>
